<svg xmlns="http://www.w3.org/2000/svg" viewBox="0 0 512 512" width="24" height="24" fill="currentColor">
  <path d="M416 128V96c0-35.3-28.7-64-64-64H160c-35.3 0-64 28.7-64 64v32H32c-17.7 0-32 14.3-32 32v288c0 17.7 14.3 32 32 32h448c17.7 0 32-14.3 32-32V160c0-17.7-14.3-32-32-32h-48zM144 96c0-8.8 7.2-16 16-16h192c8.8 0 16 7.2 16 16v32H144V96zm256 320H112V160h288v256z"/>
  <path d="M296 288h-80v-40c0-8.8-7.2-16-16-16s-16 7.2-16 16v56c0 8.8 7.2 16 16 16h96c8.8 0 16-7.2 16-16s-7.2-16-16-16z"/>
</svg>
