<svg xmlns="http://www.w3.org/2000/svg" viewBox="0 0 512 512" width="24" height="24" fill="currentColor">
  <path d="M448 106.3c-20.9-20.9-49-32.3-79-32.3-5.2 0-10.3.3-15.5 1-13.7-41.2-52.4-71-97.5-71-45.1 0-83.8 29.8-97.5 71-5.2-.7-10.3-1-15.5-1-30 0-58.1 11.4-79 32.3-20.9 20.9-32.3 49-32.3 79 0 28.5 10.4 54.7 27.7 75.1L12.5 425.4c-4.1 4.1-4.1 10.7 0 14.8l20.4 20.4c4.1 4.1 10.7 4.1 14.8 0L97.5 411c20.4 17.3 46.6 27.7 75.1 27.7 30 0 58.1-11.4 79-32.3l176.4-176.4c17.3-20.4 27.7-46.6 27.7-75.1-.1-30-11.5-58.1-32.4-79zM172.6 391.2c-23.1 0-44.8-8.8-61.1-24.8l105.7-105.7 6.3 6.3c15.6 15.6 15.6 40.9 0 56.6l-50.9 50.9v16.7zm215.1-215.1l-149 149c-3.1 3.1-8.2 3.1-11.3 0l-6.3-6.3c-3.1-3.1-3.1-8.2 0-11.3l149-149c23.2-23.2 60.9-23.2 84.1 0 23.1 23.3 23.1 61.1-6.5 77.6z"/>
</svg>
