<svg xmlns="http://www.w3.org/2000/svg" viewBox="0 0 512 512" width="24" height="24" fill="currentColor">
  <path d="M448 368H64c-35.3 0-64 28.7-64 64s28.7 64 64 64h384c35.3 0 64-28.7 64-64s-28.7-64-64-64zM256 32c-35.3 0-64 28.7-64 64s28.7 64 64 64 64-28.7 64-64-28.7-64-64-64zm80 160h-16c-8.8 0-16 7.2-16 16v128h16c8.8 0 16-7.2 16-16V208c0-8.8-7.2-16-16-16zm-128 0h-16c-8.8 0-16 7.2-16 16v128h16c8.8 0 16-7.2 16-16V208c0-8.8-7.2-16-16-16z"/>
  <path d="M480 320H32c-17.7 0-32 14.3-32 32s14.3 32 32 32h448c17.7 0 32-14.3 32-32s-14.3-32-32-32zm-32-96H64c-17.7 0-32 14.3-32 32s14.3 32 32 32h384c17.7 0 32-14.3 32-32s-14.3-32-32-32z"/>
</svg>
