<svg xmlns="http://www.w3.org/2000/svg" viewBox="0 0 512 512" width="24" height="24" fill="currentColor">
  <path d="M256 48C141.1 48 48 141.1 48 256s93.1 208 208 208 208-93.1 208-208S370.9 48 256 48zm0 384c-97.1 0-176-78.9-176-176S158.9 80 256 80s176 78.9 176 176-78.9 176-176 176z"/>
  <path d="M334.4 241.6l-64-64c-6.2-6.2-16.4-6.2-22.6 0s-6.2 16.4 0 22.6l36.7 36.7H176c-8.8 0-16 7.2-16 16s7.2 16 16 16h108.4l-36.7 36.7c-6.2 6.2-6.2 16.4 0 22.6s16.4 6.2 22.6 0l64-64c6.3-6.2 6.3-16.4 0-22.6z"/>
</svg>
